<svg xmlns="http://www.w3.org/2000/svg" version="1.0" width="125.000000pt" height="25.000000pt" viewBox="0 0 435.000000 87.000000" preserveAspectRatio="xMidYMid meet">
  <metadata>
    
Created by potrace 1.10, written by Peter Selinger 2001-2011

  </metadata>
  <g transform="translate(0.000000,87.000000) scale(0.100000,-0.100000)" fill="#000000" stroke="none">
    <path d="M245 734c-82-20-137-58-178-124-21-33-22-47-22-230 0-183 1-197 22-230 32-51 72-86 123-107 41-16 81-18 445-18 453 0 440-2 519 80 46 49 66 56 66 25 0-12 17-32 42-50 51-37 113-41 164-9 51 31 64 56 64 120 0 51-3 59-37 92-35 35-39 37-105 37-56 0-71-4-85-20-34-39-40-25-46 118-7 155-18 193-72 247-70 70-67 69-495 71-212 1-394 0-405-2zm419-140c63-25 107-63 150-129 27-42 27-206 0-251-37-60-81-101-140-130-57-28-63-29-214-29l-155 0-3 270c-1 148 0 275 3 282 3 10 42 13 150 13 132 0 150-2 209-26zm742-365c18-36 13-70-16-99-26-26-51-25-83 3-53 45-23 126 45 127 32 0 40-5 54-31z"/>
    <path d="M444 487c-2-7-3-80-2-162l3-150 38-3c61-5 142 25 172 64 21 28 25 43 25 102 0 80-17 110-81 142-45 23-147 28-155 7z"/>
    <path d="M1587 463c-4-3-7-96-7-205 0-215 1-218 55-204l25 6 0 199c0 172-2 200-16 205-21 8-49 8-57-1z"/>
    <path d="M2083 464c-10-4-13-55-13-204 0-171 2-199 16-204 27-11 54-7 60 9 8 19 21 19 40 0 21-21 94-19 119 3 42 35 55 65 55 124 0 50-4 62-32 93-30 35-34 36-87 33-31-2-63-6-71-9-12-3-16 11-20 76-5 77-6 80-30 82-14 1-31-1-37-3zm192-235c20-38 12-83-18-104-30-21-49-19-80 8-53 45-23 126 45 127 32 0 40-5 53-31z"/>
    <path d="M1833 322c-22-2-43-15-67-43-30-33-36-46-36-85 0-93 65-151 159-142 30 3 60 13 71 23l21 19-21 20c-17 17-23 19-40 8-11-6-35-12-53-12-26 0-36 6-45 25-15 32-11 34 93 37l80 3 3 35c5 72-68 121-165 112zm87-76c0-35-65-49-94-20-19 18-13 32 17 43 26 10 77-6 77-23z"/>
    <path d="M2456 301c-28-31-11-44 48-37 96 12 104-32 10-54-70-17-94-38-94-84 0-61 66-92 136-65 21 7 34 7 50-2 46-24 54-9 54 103 0 97-2 105-25 131-23 24-33 27-94 27-54 0-71-4-85-19zm134-144c0-27-27-50-59-50-40 0-47 7-33 38 10 21 19 25 52 25 26 0 40-4 40-13z"/>
    <path d="M2766 304c-25-25-38-53-31-73 9-30 44-61 69-61 28 0 73-44 55-55-17-11-68-8-82 4-13 10-47-9-47-27 0-23 45-42 101-42 52 0 60 3 83 31 48 56 28 103-57 134-33 13-47 23-45 34 3 12 16 16 58 16 45 0 55 3 58 19 6 27-15 36-85 36-43 0-66-5-77-16z"/>
    <path d="M3208 297c-15-12-34-40-43-61-23-55-6-116 44-156 29-25 45-30 87-30 67 0 84 7 84 35 0 28-22 37-65 29-27-5-36-1-58 26-32 38-34 59-7 93 17 21 31 27 73 29 48 3 52 5 52 28 0 24-3 25-70 27-60 2-74 0-97-20z"/>
    <path d="M3479 281c-35-34-39-44-39-87 0-87 58-144 144-144 138 0 198 164 90 249-21 16-41 21-92 21-61 0-66-2-103-39zm153-38c40-36 7-133-46-133-53 0-85 79-50 128 18 27 69 30 96 5z"/>
    <path d="M3804 311c-2-2-4-60-4-128 0-134 3-142 55-129 24 6 25 10 25 81 0 94 11 125 45 125 37 0 58-55 53-132-5-66 7-84 47-74 24 6 25 10 25 79 0 86 15 121 53 125 36 4 47-25 47-123 0-65 2-74 20-80 11-3 29-4 40 0 18 6 19 13 16 111-4 93-7 109-27 130-18 19-33 24-71 24-34 0-50-5-54-15-8-19-38-19-53-1-9 11-36 14-112 13-55-1-102-4-105-6z"/>
    <path d="M3000 119c-21-39 30-86 66-61 18 12 24 42 14 63-15 27-66 26-80-2z"/>
  </g>
</svg>